<svg width="24" height="24" xmlns="http://www.w3.org/2000/svg"><path fill-rule="evenodd" clip-rule="evenodd" d="M12 24c6.627 0 12-5.373 12-12S18.627 0 12 0 0 5.373 0 12s5.373 12 12 12zm-2.674-5h5.352A4.324 4.324 0 0019 14.675v-5.35A4.33 4.33 0 0014.678 5H9.322A4.325 4.325 0 005 9.325v5.35A4.33 4.33 0 009.326 19zM7.376 7.371a2.764 2.764 0 011.956-.81l5.346-.003a2.764 2.764 0 012.765 2.767v5.353a2.768 2.768 0 01-2.765 2.767H9.332a2.764 2.764 0 01-2.766-2.767v-5.35c0-.734.292-1.438.81-1.957zM12 15.77a3.769 3.769 0 110-7.538 3.769 3.769 0 010 7.538zm0-6.058a2.29 2.29 0 100 4.58 2.29 2.29 0 000-4.58zm3.77-2.019a.538.538 0 11-1.078 0 .538.538 0 011.077 0z"/></svg>