<svg width="24" height="24" xmlns="http://www.w3.org/2000/svg"><path fill-rule="evenodd" clip-rule="evenodd" d="M11.985 2.91c5.048 0 9.152 4.08 9.152 9.09s-4.104 9.09-9.152 9.09c-5.048 0-9.122-4.08-9.122-9.09s4.074-9.09 9.122-9.09zm0-2.91C18.54 0 24 5.28 24 12c0 6.69-5.461 12-12.015 12C5.461 24 0 18.69 0 12 0 5.28 5.461 0 11.985 0zm0 1.89c5.52 0 10.126 4.47 10.126 10.11s-4.605 10.11-10.126 10.11C6.465 22.11 1.86 17.64 1.86 12c0-5.67 4.605-10.11 10.125-10.11zM9.92 14.46v1.568a.5.5 0 00.794.404l5.615-4.086a.5.5 0 000-.81l-5.616-4.062a.5.5 0 00-.793.405v6.581z"/></svg>