<svg viewBox="0 0 24 25" xmlns="http://www.w3.org/2000/svg" xmlns:xlink="http://www.w3.org/1999/xlink"><style>:root&gt;svg{display:none}:root&gt;svg:target{display:block}</style><svg viewBox="0 0 24 22" id="arrow-right" xmlns="http://www.w3.org/2000/svg"><path d="M4 11a1 1 0 100 2v-2zm16.707 1.707a1 1 0 000-1.414l-6.364-6.364a1 1 0 10-1.414 1.414L18.586 12l-5.657 5.657a1 1 0 001.414 1.414l6.364-6.364zM4 13h16v-2H4v2z"/></svg><svg viewBox="0 0 24 25" id="fb" xmlns="http://www.w3.org/2000/svg"><path fill-rule="evenodd" clip-rule="evenodd" d="M10.082 23.933V16.27H7.4v-3.153h2.714v-2.978c0-1.655 1.88-3.114 3.191-3.114l3.093.027v2.774s-1.657-.016-2.074-.016a1.083 1.083 0 00-.749.326 1.039 1.039 0 00-.295.75v2.27h3.12l-.358 3.079h-2.8v7.787C19.287 23.398 24 18.273 24 12.043 24 5.392 18.627 0 12 0S0 5.392 0 12.043c0 5.996 4.366 10.969 10.082 11.89z"/></svg><svg viewBox="0 0 24 24" id="insta" xmlns="http://www.w3.org/2000/svg"><path fill-rule="evenodd" clip-rule="evenodd" d="M12 24c6.627 0 12-5.373 12-12S18.627 0 12 0 0 5.373 0 12s5.373 12 12 12zm-2.674-5h5.352A4.324 4.324 0 0019 14.675v-5.35A4.33 4.33 0 0014.678 5H9.322A4.325 4.325 0 005 9.325v5.35A4.33 4.33 0 009.326 19zM7.376 7.371a2.764 2.764 0 011.956-.81l5.346-.003a2.764 2.764 0 012.765 2.767v5.353a2.768 2.768 0 01-2.765 2.767H9.332a2.764 2.764 0 01-2.766-2.767v-5.35c0-.734.292-1.438.81-1.957zM12 15.77a3.769 3.769 0 110-7.538 3.769 3.769 0 010 7.538zm0-6.058a2.29 2.29 0 100 4.58 2.29 2.29 0 000-4.58zm3.77-2.019a.538.538 0 11-1.078 0 .538.538 0 011.077 0z"/></svg><svg viewBox="0 0 24 24" id="youtube" xmlns="http://www.w3.org/2000/svg"><path fill-rule="evenodd" clip-rule="evenodd" d="M11.985 2.91c5.048 0 9.152 4.08 9.152 9.09s-4.104 9.09-9.152 9.09c-5.048 0-9.122-4.08-9.122-9.09s4.074-9.09 9.122-9.09zm0-2.91C18.54 0 24 5.28 24 12c0 6.69-5.461 12-12.015 12C5.461 24 0 18.69 0 12 0 5.28 5.461 0 11.985 0zm0 1.89c5.52 0 10.126 4.47 10.126 10.11s-4.605 10.11-10.126 10.11C6.465 22.11 1.86 17.64 1.86 12c0-5.67 4.605-10.11 10.125-10.11zM9.92 14.46v1.568a.5.5 0 00.794.404l5.615-4.086a.5.5 0 000-.81l-5.616-4.062a.5.5 0 00-.793.405v6.581z"/></svg></svg>