<svg width="24" height="25" viewBox="0 0 24 25" xmlns="http://www.w3.org/2000/svg">
<path fill-rule="evenodd" clip-rule="evenodd" d="M10.0818 23.9331V16.2696H7.4V13.117H10.1139V10.1395C10.1139 8.48436 11.9948 7.02539 13.3052 7.02539L16.3982 7.05167V9.82599C16.3982 9.82599 14.7409 9.81022 14.3243 9.81022C14.0404 9.81756 13.7711 9.93489 13.5754 10.1365C13.3796 10.3381 13.2735 10.6075 13.2802 10.8856V13.1555H16.4L16.0424 16.2346H13.2427V24.0223C19.2862 23.3983 24 18.2731 24 12.043C24 5.39186 18.6274 0 12 0C5.37258 0 0 5.39186 0 12.043C0 18.039 4.36616 23.0115 10.0818 23.9331Z"/>
</svg>
