<svg width="24" height="24" viewBox="0 0 24 24" xmlns="http://www.w3.org/2000/svg">
<path fill-rule="evenodd" clip-rule="evenodd" d="M12 24C18.6274 24 24 18.6274 24 12C24 5.37258 18.6274 0 12 0C5.37258 0 0 5.37258 0 12C0 18.6274 5.37258 24 12 24ZM9.32609 19H14.6781C15.824 18.9989 16.9226 18.5429 17.7329 17.732C18.5432 16.9212 18.9989 15.8218 19 14.6751V9.32493C18.9989 8.17823 18.5432 7.0788 17.7329 6.26796C16.9226 5.45711 15.824 5.0011 14.6781 5H9.32194C8.17603 5.0011 7.07736 5.45711 6.26708 6.26796C5.4568 7.0788 5.0011 8.17823 5 9.32493V14.6751C5.0011 15.8225 5.45737 16.9225 6.26855 17.7335C7.07973 18.5445 8.17946 19 9.32609 19ZM7.37636 7.37109C7.89493 6.85216 8.59826 6.56063 9.33162 6.56063L14.6781 6.55786C15.4114 6.55786 16.1147 6.84939 16.6333 7.36832C17.1519 7.88724 17.4432 8.59106 17.4432 9.32493V14.6778C17.4432 15.4117 17.1519 16.1155 16.6333 16.6344C16.1147 17.1534 15.4114 17.4449 14.6781 17.4449H9.33162C8.59826 17.4449 7.89493 17.1534 7.37636 16.6344C6.85779 16.1155 6.56646 15.4117 6.56646 14.6778V9.3277C6.56646 8.59383 6.85779 7.89001 7.37636 7.37109ZM12 15.7692C11.2545 15.7692 10.5258 15.5482 9.90593 15.134C9.28608 14.7198 8.80297 14.1312 8.51769 13.4424C8.2324 12.7537 8.15776 11.9958 8.3032 11.2647C8.44863 10.5335 8.80762 9.86189 9.33475 9.33476C9.86189 8.80762 10.5335 8.44863 11.2647 8.30319C11.9958 8.15776 12.7537 8.2324 13.4424 8.51769C14.1312 8.80297 14.7198 9.28608 15.134 9.90593C15.5482 10.5258 15.7692 11.2545 15.7692 12C15.7681 12.9993 15.3706 13.9574 14.664 14.664C13.9574 15.3706 12.9993 15.7681 12 15.7692ZM12 9.71107C11.5469 9.71107 11.1041 9.84544 10.7274 10.0972C10.3507 10.3489 10.0571 10.7067 9.88382 11.1253C9.71051 11.5439 9.66524 12.0045 9.75373 12.4488C9.84222 12.8932 10.0605 13.3013 10.381 13.6215C10.7014 13.9418 11.1097 14.1598 11.5541 14.248C11.9984 14.3362 12.459 14.2907 12.8775 14.1171C13.296 13.9435 13.6536 13.6497 13.9051 13.2729C14.1566 12.896 14.2907 12.4531 14.2904 12C14.2896 11.3929 14.048 10.811 13.6186 10.3818C13.1892 9.95269 12.6071 9.71146 12 9.71107ZM15.7692 7.6923C15.7692 7.98969 15.5282 8.23077 15.2308 8.23077C14.9334 8.23077 14.6923 7.98969 14.6923 7.6923C14.6923 7.39492 14.9334 7.15385 15.2308 7.15385C15.5282 7.15385 15.7692 7.39492 15.7692 7.6923Z"/>
</svg>
