<svg width="24" height="24" viewBox="0 0 24 24" xmlns="http://www.w3.org/2000/svg">
<path fill-rule="evenodd" clip-rule="evenodd" d="M11.9852 2.91C17.0332 2.91 21.1365 6.99 21.1365 12C21.1365 17.01 17.0332 21.09 11.9852 21.09C6.93727 21.09 2.86347 17.01 2.86347 12C2.86347 6.99 6.93727 2.91 11.9852 2.91ZM11.9852 0C18.5387 0 24 5.28 24 12C24 18.69 18.5387 24 11.9852 24C5.46125 24 0 18.69 0 12C0 5.28 5.46125 0 11.9852 0ZM11.9852 1.89C17.5055 1.89 22.1107 6.36 22.1107 12C22.1107 17.64 17.5055 22.11 11.9852 22.11C6.46494 22.11 1.85978 17.64 1.85978 12C1.85978 6.33 6.46494 1.89 11.9852 1.89ZM9.91882 14.46V16.0277C9.91882 16.4365 10.3826 16.6725 10.713 16.432L16.3284 12.3455C16.6033 12.1454 16.6027 11.7353 16.3273 11.5361L10.7119 7.47373C10.3813 7.23455 9.91882 7.47077 9.91882 7.87884V9.42V14.46Z"/>
</svg>
