<svg width="33" height="32" fill="none" xmlns="http://www.w3.org/2000/svg"><path d="M20 4.25h-7a8.258 8.258 0 00-8.25 8.25v7A8.258 8.258 0 0013 27.75h7a8.258 8.258 0 008.25-8.25v-7A8.258 8.258 0 0020 4.25zm-3.5 17.22A5.47 5.47 0 1121.97 16a5.477 5.477 0 01-5.47 5.47zm7.015-10.685a.916.916 0 01-.325.215.791.791 0 01-.185.055.858.858 0 01-.195.02 1.098 1.098 0 01-.385-.075 1.105 1.105 0 01-.17-.09 1.225 1.225 0 01-.155-.125 1.011 1.011 0 010-1.415c.048-.046.1-.088.155-.125a1.095 1.095 0 01.36-.15 1.001 1.001 0 011.025.425c.037.056.068.114.095.175.024.06.042.122.055.185a.993.993 0 01-.275.905zM16.5 12.03a3.97 3.97 0 100 7.939 3.97 3.97 0 000-7.939zm-.485 2.585A1.47 1.47 0 0015.03 16a.75.75 0 11-1.5 0 2.969 2.969 0 011.99-2.8.75.75 0 01.495 1.415z" fill="#EFF0F1"/></svg>