<svg width="20" height="20" fill="none" xmlns="http://www.w3.org/2000/svg"><path fill-rule="evenodd" clip-rule="evenodd" d="M3.483 3.844h13.034c.3 0 .54.06.84.18 0 .54-.3 1.021-.72 1.441L11.712 9.28c-.901.78-2.463.841-3.424 0L3.363 5.405c-.42-.36-.66-.84-.66-1.381 0-.06.72-.18.78-.18zm14.775.84c.3.36.48.841.48 1.382v7.928c0 1.201-1.02 2.162-2.221 2.162H3.482a2.153 2.153 0 01-2.162-2.162V6.066c0-.54.18-1.021.48-1.381.12.6.421 1.08.902 1.501l4.925 3.874c1.32 1.141 3.483 1.081 4.744-.06l4.925-3.814c.48-.36.781-.9.961-1.501z" fill="#EFF0F1"/></svg>