<svg width="20" height="24" fill="none" xmlns="http://www.w3.org/2000/svg"><path d="M8 6.825c.568 0 1.113.224 1.515.622a2.116 2.116 0 01-.695 3.466 2.158 2.158 0 01-2.335-.46 2.116 2.116 0 010-3.006A2.152 2.152 0 018 6.825zM8 3c1.591 0 3.117.627 4.243 1.743A5.925 5.925 0 0114 8.95C14 13.413 8 20 8 20S2 13.412 2 8.95c0-1.578.632-3.091 1.757-4.207A6.026 6.026 0 018 3zm0 1.7a4.304 4.304 0 00-3.03 1.245A4.232 4.232 0 003.714 8.95c0 .85 0 2.55 4.286 8.253C12.286 11.5 12.286 9.8 12.286 8.95a4.232 4.232 0 00-1.255-3.005A4.304 4.304 0 008 4.7z" fill="#7A848A"/></svg>