<svg width="20" height="20" fill="none" xmlns="http://www.w3.org/2000/svg"><path d="M14.811 11.796c-.495-.494-1.146-.494-1.641 0-.39.39-.782.754-1.146 1.145-.026.025-.052.051-.079.051l-.26.26a.195.195 0 01-.235 0c-.234-.13-.52-.234-.755-.39-1.12-.702-2.058-1.586-2.866-2.6a6.728 6.728 0 01-1.042-1.638c-.052-.104-.052-.182.026-.26l.26-.26.052-.052.34-.339c.26-.26.52-.52.78-.806.522-.52.522-1.144 0-1.69-.286-.312-.598-.598-.911-.91l-.938-.936c-.495-.495-1.146-.495-1.641 0-.391.39-.756.78-1.147 1.144-.365.338-.547.754-.6 1.274-.051.806.131 1.56.418 2.289.573 1.534 1.433 2.886 2.475 4.134a15.152 15.152 0 005.08 3.98c.886.441 1.824.753 2.814.805.678.026 1.303-.13 1.772-.676.339-.364.703-.702 1.042-1.066.521-.52.521-1.144 0-1.664a58.468 58.468 0 00-1.798-1.795z" fill="#EFF0F1"/></svg>