<svg width="20" height="24" fill="none" xmlns="http://www.w3.org/2000/svg"><path d="M10 13.273h1.125v2.179l1.83 1.09-.563 1.004L10 16.124v-2.851zm3-3.864H2.5v8.5h3.503a5.557 5.557 0 01-.503-2.318c0-1.435.553-2.81 1.538-3.825a5.173 5.173 0 013.712-1.584c.803 0 1.568.185 2.25.518V9.41zM2.5 19.454c-.833 0-1.5-.695-1.5-1.545V7.091c0-.858.667-1.546 1.5-1.546h.75V4h1.5v1.545h6V4h1.5v1.545H13c.398 0 .78.163 1.06.453.282.29.44.683.44 1.093v4.714a5.46 5.46 0 011.5 3.786c0 1.435-.553 2.81-1.538 3.825A5.173 5.173 0 0110.75 21a5.141 5.141 0 01-3.675-1.546H2.5zm8.25-7.61c-.965 0-1.89.394-2.572 1.097a3.806 3.806 0 00-1.066 2.65c0 2.07 1.628 3.748 3.638 3.748.478 0 .95-.097 1.392-.286a3.634 3.634 0 001.18-.812c.338-.348.606-.761.789-1.216.182-.455.276-.942.276-1.434 0-2.071-1.627-3.748-3.637-3.748z" fill="#7A848A"/></svg>