<svg width="20" height="24" fill="none" xmlns="http://www.w3.org/2000/svg"><path d="M8 4a8 8 0 100 16A8 8 0 008 4zM4.056 17.024C4.4 16.304 6.496 15.6 8 15.6s3.6.704 3.944 1.424A6.314 6.314 0 018 18.4a6.314 6.314 0 01-3.944-1.376zm9.032-1.16C11.944 14.472 9.168 14 8 14c-1.168 0-3.944.472-5.088 1.864A6.342 6.342 0 011.6 12c0-3.528 2.872-6.4 6.4-6.4 3.528 0 6.4 2.872 6.4 6.4 0 1.456-.496 2.8-1.312 3.864zM8 7.2A2.793 2.793 0 005.2 10c0 1.552 1.248 2.8 2.8 2.8 1.552 0 2.8-1.248 2.8-2.8 0-1.552-1.248-2.8-2.8-2.8zm0 4a1.2 1.2 0 110-2.4 1.2 1.2 0 010 2.4z" fill="#7A848A"/></svg>