<svg width="24" height="24" viewBox="0 0 24 24" fill="none" xmlns="http://www.w3.org/2000/svg">
<path fill-rule="evenodd" clip-rule="evenodd" d="M12 3C7.03869 3 3 7.03869 3 12C3 16.9613 7.03869 21 12 21C16.9613 21 21 16.9613 21 12C21 7.03869 16.9613 3 12 3ZM12 4.63411C16.0769 4.63411 19.3667 7.92313 19.3667 12C19.3667 16.0769 16.0769 19.3627 12 19.3627C7.92312 19.3627 4.63731 16.0769 4.63731 12C4.63731 7.92313 7.92312 4.63411 12 4.63411ZM16.0777 8.71659C15.8643 8.72231 15.6615 8.8112 15.5127 8.96431L11.1817 13.2953L9.30631 11.4199C9.23091 11.3413 9.1406 11.2786 9.04067 11.2355C8.94074 11.1923 8.83319 11.1694 8.72433 11.1683C8.61547 11.1672 8.50749 11.1879 8.4067 11.229C8.30591 11.2702 8.21434 11.331 8.13736 11.408C8.06038 11.485 7.99953 11.5765 7.95838 11.6773C7.91723 11.7781 7.89661 11.8861 7.89772 11.995C7.89882 12.1038 7.92164 12.2114 7.96483 12.3113C8.00802 12.4112 8.07072 12.5015 8.14925 12.5769L10.6048 15.0317C10.7583 15.1851 10.9664 15.2713 11.1833 15.2713C11.4003 15.2713 11.6084 15.1851 11.7619 15.0317L16.669 10.1246C16.7882 10.01 16.8699 9.86207 16.9033 9.70019C16.9368 9.53832 16.9204 9.3701 16.8564 9.2177C16.7924 9.0653 16.6838 8.93585 16.5448 8.8464C16.4057 8.75695 16.2429 8.7117 16.0777 8.71659Z" fill="#E7B95D"/>
</svg>
