<svg width="24" height="25" viewBox="0 0 24 25" fill="none" xmlns="http://www.w3.org/2000/svg">
<path d="M20 11.5C20.5523 11.5 21 11.9477 21 12.5C21 13.0523 20.5523 13.5 20 13.5V11.5ZM3.29289 13.2071C2.90237 12.8166 2.90237 12.1834 3.29289 11.7929L9.65685 5.42893C10.0474 5.03841 10.6805 5.03841 11.0711 5.42893C11.4616 5.81946 11.4616 6.45262 11.0711 6.84315L5.41421 12.5L11.0711 18.1569C11.4616 18.5474 11.4616 19.1805 11.0711 19.5711C10.6805 19.9616 10.0474 19.9616 9.65685 19.5711L3.29289 13.2071ZM20 13.5H4V11.5H20V13.5Z" fill="#38778E"/>
</svg>
