<svg width="24" height="25" viewBox="0 0 24 25" fill="none" xmlns="http://www.w3.org/2000/svg">
<path d="M4 11.5C3.44772 11.5 3 11.9477 3 12.5C3 13.0523 3.44772 13.5 4 13.5V11.5ZM20.7071 13.2071C21.0976 12.8166 21.0976 12.1834 20.7071 11.7929L14.3431 5.42893C13.9526 5.03841 13.3195 5.03841 12.9289 5.42893C12.5384 5.81946 12.5384 6.45262 12.9289 6.84315L18.5858 12.5L12.9289 18.1569C12.5384 18.5474 12.5384 19.1805 12.9289 19.5711C13.3195 19.9616 13.9526 19.9616 14.3431 19.5711L20.7071 13.2071ZM4 13.5H20V11.5H4V13.5Z" fill="#38778E"/>
</svg>
