<svg width="33" height="32" viewBox="0 0 33 32" fill="none" xmlns="http://www.w3.org/2000/svg">
<path d="M20 4.25H13C10.8126 4.25214 8.71545 5.12203 7.16874 6.66874C5.62203 8.21545 4.75214 10.3126 4.75 12.5V19.5C4.75216 21.6874 5.62204 23.7845 7.16875 25.3312C8.71546 26.878 10.8126 27.7478 13 27.75H20C22.1874 27.7478 24.2845 26.878 25.8312 25.3312C27.378 23.7845 28.2478 21.6874 28.25 19.5V12.5C28.2479 10.3126 27.378 8.21545 25.8313 6.66874C24.2846 5.12203 22.1874 4.25214 20 4.25ZM16.5 21.47C15.4181 21.47 14.3606 21.1492 13.461 20.5481C12.5615 19.9471 11.8604 19.0928 11.4464 18.0933C11.0324 17.0938 10.924 15.9939 11.1351 14.9329C11.3462 13.8718 11.8671 12.8971 12.6321 12.1321C13.3971 11.3671 14.3718 10.8462 15.4329 10.6351C16.4939 10.424 17.5938 10.5324 18.5933 10.9464C19.5928 11.3604 20.4471 12.0615 21.0481 12.961C21.6492 13.8606 21.97 14.9181 21.97 16C21.968 17.4501 21.391 18.8403 20.3656 19.8656C19.3403 20.891 17.9501 21.468 16.5 21.47ZM23.515 10.785C23.4696 10.8319 23.4193 10.8738 23.365 10.91C23.3093 10.9449 23.2508 10.975 23.19 11C23.1308 11.0258 23.0687 11.0443 23.005 11.055C22.941 11.0691 22.8755 11.0758 22.81 11.075C22.6782 11.0733 22.5478 11.0479 22.425 11C22.3658 10.975 22.309 10.9449 22.255 10.91C22.2 10.8726 22.1482 10.8308 22.1 10.785C21.9138 10.5956 21.8097 10.3406 21.81 10.075C21.8092 10.0095 21.8159 9.94403 21.83 9.88C21.8407 9.81631 21.8592 9.75418 21.885 9.695C21.91 9.63421 21.9401 9.57567 21.975 9.52C22.0127 9.46679 22.0545 9.41663 22.1 9.37C22.1482 9.32415 22.2 9.28234 22.255 9.245C22.3089 9.21008 22.3658 9.17996 22.425 9.155C22.4866 9.12977 22.5501 9.1097 22.615 9.095C22.7761 9.0636 22.9424 9.07226 23.0993 9.12021C23.2562 9.16816 23.399 9.25394 23.515 9.37C23.562 9.41533 23.6039 9.46563 23.64 9.52C23.6765 9.57556 23.7083 9.6341 23.735 9.695C23.7586 9.75498 23.777 9.81688 23.79 9.88C23.8016 9.9444 23.8083 10.0096 23.81 10.075C23.8104 10.207 23.7845 10.3377 23.7338 10.4596C23.6832 10.5815 23.6088 10.6921 23.515 10.785ZM16.5 12.03C15.7148 12.03 14.9472 12.2628 14.2944 12.6991C13.6415 13.1353 13.1327 13.7553 12.8322 14.4807C12.5317 15.2062 12.4531 16.0044 12.6063 16.7745C12.7595 17.5446 13.1376 18.252 13.6928 18.8072C14.248 19.3624 14.9554 19.7405 15.7255 19.8937C16.4956 20.0469 17.2938 19.9683 18.0193 19.6678C18.7447 19.3673 19.3647 18.8585 19.8009 18.2056C20.2372 17.5528 20.47 16.7852 20.47 16C20.4691 14.9474 20.0506 13.9381 19.3063 13.1937C18.5619 12.4494 17.5526 12.0309 16.5 12.03ZM16.015 14.615C15.7276 14.7154 15.4785 14.9026 15.3021 15.1507C15.1256 15.3988 15.0306 15.6956 15.03 16C15.03 16.1989 14.951 16.3897 14.8103 16.5303C14.6697 16.671 14.4789 16.75 14.28 16.75C14.0811 16.75 13.8903 16.671 13.7497 16.5303C13.609 16.3897 13.53 16.1989 13.53 16C13.5306 15.3846 13.7224 14.7846 14.0789 14.283C14.4354 13.7813 14.939 13.4029 15.52 13.2C15.7074 13.1355 15.9127 13.1477 16.091 13.2342C16.2694 13.3206 16.4062 13.4741 16.4716 13.6612C16.5371 13.8482 16.5258 14.0536 16.4402 14.2323C16.3546 14.4111 16.2017 14.5487 16.015 14.615Z" fill="#EFF0F1"/>
</svg>
