<svg width="20" height="20" viewBox="0 0 20 20" fill="none" xmlns="http://www.w3.org/2000/svg">
<path fill-rule="evenodd" clip-rule="evenodd" d="M3.48348 3.84375H16.5165C16.8168 3.84375 17.0571 3.90381 17.3574 4.02393C17.3574 4.56447 17.0571 5.04495 16.6366 5.46537L11.7117 9.27916C10.8108 10.0599 9.24925 10.12 8.28829 9.27916L3.36336 5.40531C2.94294 5.04495 2.7027 4.56447 2.7027 4.02393C2.7027 3.96387 3.42342 3.84375 3.48348 3.84375ZM18.2583 4.68459C18.5586 5.04495 18.7387 5.52543 18.7387 6.06597V13.9939C18.7387 15.1951 17.7177 16.1561 16.5165 16.1561H3.48348C2.28228 16.1561 1.32132 15.1951 1.32132 13.9939V6.06597C1.32132 5.52543 1.5015 5.04495 1.8018 4.68459C1.92192 5.28519 2.22222 5.76567 2.7027 6.18609L7.62763 10.0599C8.94895 11.2011 11.1111 11.141 12.3724 9.99988L17.2973 6.18609C17.7778 5.82573 18.0781 5.28519 18.2583 4.68459Z" fill="#EFF0F1"/>
</svg>
