<svg width="20" height="24" viewBox="0 0 20 24" fill="none" xmlns="http://www.w3.org/2000/svg">
<path d="M8 6.825C8.56832 6.825 9.11337 7.04888 9.51523 7.4474C9.91709 7.84591 10.1429 8.38642 10.1429 8.95C10.1429 9.22906 10.0874 9.50539 9.97974 9.7632C9.87205 10.021 9.71421 10.2553 9.51523 10.4526C9.31625 10.6499 9.08002 10.8065 8.82004 10.9132C8.56005 11.02 8.2814 11.075 8 11.075C7.43168 11.075 6.88663 10.8511 6.48477 10.4526C6.08291 10.0541 5.85714 9.51359 5.85714 8.95C5.85714 8.38642 6.08291 7.84591 6.48477 7.4474C6.88663 7.04888 7.43168 6.825 8 6.825ZM8 3C9.5913 3 11.1174 3.62687 12.2426 4.74271C13.3679 5.85856 14 7.37196 14 8.95C14 13.4125 8 20 8 20C8 20 2 13.4125 2 8.95C2 7.37196 2.63214 5.85856 3.75736 4.74271C4.88258 3.62687 6.4087 3 8 3ZM8 4.7C6.86336 4.7 5.77327 5.14777 4.96954 5.9448C4.16582 6.74183 3.71429 7.82283 3.71429 8.95C3.71429 9.8 3.71429 11.5 8 17.2035C12.2857 11.5 12.2857 9.8 12.2857 8.95C12.2857 7.82283 11.8342 6.74183 11.0305 5.9448C10.2267 5.14777 9.13664 4.7 8 4.7Z" fill="#7A848A"/>
</svg>
