<svg width="20" height="24" viewBox="0 0 20 24" fill="none" xmlns="http://www.w3.org/2000/svg">
<path d="M8.856 11.128C9.34195 10.4491 9.60324 9.63501 9.60324 8.80004C9.60324 7.96507 9.34195 7.15103 8.856 6.47204C9.31081 6.16161 9.84935 5.99698 10.4 6.00004C11.1426 6.00004 11.8548 6.29504 12.3799 6.82014C12.905 7.34525 13.2 8.05744 13.2 8.80004C13.2 9.54265 12.905 10.2548 12.3799 10.7799C11.8548 11.305 11.1426 11.6 10.4 11.6C9.84935 11.6031 9.31081 11.4385 8.856 11.128ZM2.8 8.80004C2.8 8.24625 2.96422 7.7049 3.27188 7.24445C3.57955 6.78399 4.01685 6.4251 4.52849 6.21318C5.04012 6.00125 5.60311 5.9458 6.14625 6.05384C6.6894 6.16188 7.18831 6.42856 7.5799 6.82014C7.97149 7.21173 8.23816 7.71064 8.3462 8.25379C8.45424 8.79694 8.39879 9.35992 8.18686 9.87156C7.97494 10.3832 7.61605 10.8205 7.1556 11.1282C6.69514 11.4358 6.15379 11.6 5.6 11.6C4.85739 11.6 4.1452 11.305 3.6201 10.7799C3.095 10.2548 2.8 9.54265 2.8 8.80004V8.80004ZM4.4 8.80004C4.4 9.03738 4.47038 9.26939 4.60224 9.46673C4.73409 9.66406 4.92151 9.81787 5.14078 9.9087C5.36005 9.99952 5.60133 10.0233 5.83411 9.97698C6.06689 9.93068 6.28071 9.81639 6.44853 9.64857C6.61635 9.48075 6.73064 9.26693 6.77694 9.03415C6.82324 8.80137 6.79948 8.56009 6.70866 8.34082C6.61783 8.12155 6.46402 7.93414 6.26668 7.80228C6.06935 7.67042 5.83734 7.60004 5.6 7.60004C5.28174 7.60004 4.97652 7.72647 4.75147 7.95151C4.52643 8.17656 4.4 8.48178 4.4 8.80004ZM11.2 16.4V18H0V16.4C0 16.4 0 13.2 5.6 13.2C11.2 13.2 11.2 16.4 11.2 16.4ZM9.6 16.4C9.488 15.776 8.536 14.8 5.6 14.8C2.664 14.8 1.656 15.848 1.6 16.4H9.6ZM11.16 13.2C11.6503 13.5814 12.0512 14.0655 12.3345 14.6183C12.6179 15.1712 12.7767 15.7793 12.8 16.4V18H16V16.4C16 16.4 16 13.496 11.152 13.2H11.16Z" fill="#7A848A"/>
</svg>
