<svg width="20" height="20" viewBox="0 0 20 20" fill="none" xmlns="http://www.w3.org/2000/svg">
<path d="M14.8114 11.7963C14.3164 11.3022 13.6651 11.3022 13.17 11.7963C12.7792 12.1863 12.3884 12.5504 12.0236 12.9405C11.9976 12.9665 11.9715 12.9925 11.9455 12.9925L11.6849 13.2525C11.6068 13.3046 11.5286 13.3046 11.4504 13.2525C11.216 13.1225 10.9294 13.0185 10.6949 12.8625C9.57454 12.1603 8.63659 11.2761 7.82891 10.2619C7.41204 9.76785 7.04728 9.22174 6.78674 8.62362C6.73463 8.5196 6.73463 8.44158 6.81279 8.36357L7.07333 8.10351C7.09939 8.07751 7.09939 8.07751 7.12544 8.05151C7.22966 7.94748 7.35993 7.81746 7.46415 7.71344C7.72469 7.45339 7.98523 7.19333 8.24577 6.90728C8.76686 6.38717 8.76686 5.76305 8.24577 5.21694C7.95918 4.90488 7.64653 4.61882 7.33388 4.30676C7.02123 3.9947 6.70857 3.68264 6.39592 3.37057C5.90089 2.87648 5.24954 2.87648 4.75451 3.37057C4.36369 3.76065 3.99893 4.15073 3.60812 4.5148C3.24336 4.85287 3.06098 5.26895 3.00887 5.78906C2.95676 6.59522 3.13914 7.34937 3.42574 8.07751C3.99893 9.61181 4.85872 10.9641 5.90089 12.2123C7.30782 13.9027 9.00135 15.2289 10.9815 16.1911C11.8673 16.6332 12.8053 16.9453 13.7953 16.9973C14.4727 17.0233 15.098 16.8673 15.567 16.3211C15.9057 15.9571 16.2705 15.619 16.6092 15.2549C17.1303 14.7348 17.1303 14.1107 16.6092 13.5906C16.062 13.0185 15.4367 12.3944 14.8114 11.7963Z" fill="#EFF0F1"/>
</svg>
