<svg width="20" height="24" viewBox="0 0 20 24" fill="none" xmlns="http://www.w3.org/2000/svg">
<path d="M10 13.2727H11.125V15.4518L12.955 16.5414L12.3925 17.5459L10 16.1241V13.2727ZM13 9.40909H2.5V17.9091H6.0025C5.68 17.2059 5.5 16.4177 5.5 15.5909C5.5 14.1563 6.05312 12.7805 7.03769 11.7661C8.02226 10.7517 9.35761 10.1818 10.75 10.1818C11.5525 10.1818 12.3175 10.3673 13 10.6995V9.40909ZM2.5 19.4545C1.6675 19.4545 1 18.7591 1 17.9091V7.09091C1 6.23318 1.6675 5.54545 2.5 5.54545H3.25V4H4.75V5.54545H10.75V4H12.25V5.54545H13C13.3978 5.54545 13.7794 5.70828 14.0607 5.99811C14.342 6.28794 14.5 6.68103 14.5 7.09091V11.8045C15.43 12.7782 16 14.115 16 15.5909C16 17.0255 15.4469 18.4013 14.4623 19.4157C13.4777 20.4301 12.1424 21 10.75 21C9.3175 21 8.02 20.4127 7.075 19.4545H2.5ZM10.75 11.8432C9.78528 11.8432 8.86006 12.238 8.1779 12.9409C7.49574 13.6437 7.1125 14.5969 7.1125 15.5909C7.1125 17.6618 8.74 19.3386 10.75 19.3386C11.2277 19.3386 11.7007 19.2417 12.142 19.0534C12.5833 18.865 12.9843 18.589 13.3221 18.241C13.6599 17.8929 13.9278 17.4798 14.1106 17.0251C14.2934 16.5704 14.3875 16.0831 14.3875 15.5909C14.3875 13.52 12.76 11.8432 10.75 11.8432Z" fill="#7A848A"/>
</svg>
