<svg width="20" height="24" viewBox="0 0 20 24" fill="none" xmlns="http://www.w3.org/2000/svg">
<path d="M8 4C6.94943 4 5.90914 4.20693 4.93853 4.60896C3.96793 5.011 3.08601 5.60028 2.34315 6.34315C0.842855 7.84344 0 9.87827 0 12C0 14.1217 0.842855 16.1566 2.34315 17.6569C3.08601 18.3997 3.96793 18.989 4.93853 19.391C5.90914 19.7931 6.94943 20 8 20C10.1217 20 12.1566 19.1571 13.6569 17.6569C15.1571 16.1566 16 14.1217 16 12C16 10.9494 15.7931 9.90914 15.391 8.93853C14.989 7.96793 14.3997 7.08601 13.6569 6.34315C12.914 5.60028 12.0321 5.011 11.0615 4.60896C10.0909 4.20693 9.05058 4 8 4ZM4.056 17.024C4.4 16.304 6.496 15.6 8 15.6C9.504 15.6 11.6 16.304 11.944 17.024C10.856 17.888 9.488 18.4 8 18.4C6.512 18.4 5.144 17.888 4.056 17.024ZM13.088 15.864C11.944 14.472 9.168 14 8 14C6.832 14 4.056 14.472 2.912 15.864C2.096 14.8 1.6 13.456 1.6 12C1.6 8.472 4.472 5.6 8 5.6C11.528 5.6 14.4 8.472 14.4 12C14.4 13.456 13.904 14.8 13.088 15.864ZM8 7.2C6.448 7.2 5.2 8.448 5.2 10C5.2 11.552 6.448 12.8 8 12.8C9.552 12.8 10.8 11.552 10.8 10C10.8 8.448 9.552 7.2 8 7.2ZM8 11.2C7.68174 11.2 7.37652 11.0736 7.15147 10.8485C6.92643 10.6235 6.8 10.3183 6.8 10C6.8 9.68174 6.92643 9.37652 7.15147 9.15147C7.37652 8.92643 7.68174 8.8 8 8.8C8.31826 8.8 8.62348 8.92643 8.84853 9.15147C9.07357 9.37652 9.2 9.68174 9.2 10C9.2 10.3183 9.07357 10.6235 8.84853 10.8485C8.62348 11.0736 8.31826 11.2 8 11.2Z" fill="#7A848A"/>
</svg>
